<?xml version="1.0" encoding="UTF-8" standalone="no"?>
<svg
   xmlns:dc="http://purl.org/dc/elements/1.1/"
   xmlns:cc="http://creativecommons.org/ns#"
   xmlns:rdf="http://www.w3.org/1999/02/22-rdf-syntax-ns#"
   xmlns:svg="http://www.w3.org/2000/svg"
   xmlns="http://www.w3.org/2000/svg"
   xmlns:sodipodi="http://sodipodi.sourceforge.net/DTD/sodipodi-0.dtd"
   xmlns:inkscape="http://www.inkscape.org/namespaces/inkscape"
   id="Layer_5"
   enable-background="new 0 0 64 64"
   height="65.534729"
   viewBox="0 0 43.55483 8.1918412"
   width="348.43863"
   version="1.1"
   sodipodi:docname="ontheflyLogo.svg"
   inkscape:version="1.0.1 (3bc2e813f5, 2020-09-07)">
  <metadata
     id="metadata869">
    <rdf:RDF>
      <cc:Work
         rdf:about="">
        <dc:format>image/svg+xml</dc:format>
        <dc:type
           rdf:resource="http://purl.org/dc/dcmitype/StillImage" />
        <dc:title></dc:title>
      </cc:Work>
    </rdf:RDF>
  </metadata>
  <defs
     id="defs867" />
  <sodipodi:namedview
     pagecolor="#ffffff"
     bordercolor="#666666"
     borderopacity="1"
     objecttolerance="10"
     gridtolerance="10"
     guidetolerance="10"
     inkscape:pageopacity="0"
     inkscape:pageshadow="2"
     inkscape:window-width="1920"
     inkscape:window-height="1001"
     id="namedview865"
     showgrid="false"
     inkscape:zoom="2.6279573"
     inkscape:cx="147.54678"
     inkscape:cy="48.322631"
     inkscape:window-x="-9"
     inkscape:window-y="-9"
     inkscape:window-maximized="1"
     inkscape:current-layer="g964"
     showguides="true"
     inkscape:guide-bbox="true"
     inkscape:document-rotation="0" />
  <g
     id="g953"
     transform="matrix(0.12980018,0,0,0.12980018,27.034849,31.543565)">
    <g
       id="g964"
       transform="translate(1.4658057,-95.988451)">
      <g
         id="g934" />
      <g
         id="g899"
         transform="translate(0,-75.122545)">
        <rect
           style="fill:#f0bc5e;fill-opacity:1;stroke:none;stroke-width:0.770415;stroke-linecap:round;stroke-miterlimit:4;stroke-dasharray:none;stroke-opacity:1;paint-order:fill markers stroke"
           id="rect887-3"
           width="3.8285139"
           height="3.5732796"
           x="19.21298"
           y="-61.252293" />
        <rect
           style="fill:#f0bc5e;fill-opacity:1;stroke:none;stroke-width:0.770415;stroke-linecap:round;stroke-miterlimit:4;stroke-dasharray:none;stroke-opacity:1;paint-order:fill markers stroke"
           id="rect887"
           width="3.8285139"
           height="3.5732796"
           x="31.289347"
           y="-61.129269" />
        <path
           d="m 34.305333,-23.652 c -0.793,-1.207 -1.46,-2.487 -1.917,-3.823 h -11.398 c -0.456,1.331 -1.12,2.607 -1.91,3.812 l 0.023,0.117 c 0.486,1.679 1.057,3.009 1.645,4.072 h 11.882 c 0.6,-1.085 1.182,-2.451 1.675,-4.178 z"
           fill="#f0bc5e"
           id="path852" />
        <path
           d="m 21.709333,-31.921 h 10.014 c 0.042,-4.551 0.363,-6.277 0.629,-8 h -1.806 c -0.868,1.236 -2.286,2 -3.831,2 -1.545,0 -2.963,-0.764 -3.831,-2 h -1.806 c 0.268,1.723 0.589,3.449 0.631,8 z"
           fill="#f0bc5e"
           id="path856" />
        <path
           d="m 51.681981,-45.679 h 6.531 v -2 h -7.469 l -5,6 h -4.087 c -2.858,-2.828 -5.2,-5.469 -5.418,-7.67 l 0.505,-1.094 c 0.303,-0.658 0.464,-1.387 0.467,-2.111 l 6.933,-2.388 1.022,-10.23 5.687,-4.738 -1.281,-1.536 -6.313,5.262 -0.978,9.77 -5.461,1.881 c -0.201,-0.482 -0.489,-0.913 -0.82,-1.307 0.712,-0.308 1.213,-1.016 1.213,-1.839 0,-2.757 -2.243,-5 -5,-5 h -1 c -0.047,0 -0.091,0.011 -0.138,0.014 -0.138,-0.541 -0.387,-1.032 -0.72,-1.46 l 0.828,-3.311 -1.94,-0.486 -0.628,2.51 c -0.437,-0.165 -0.907,-0.267 -1.402,-0.267 -0.495,0 -0.965,0.102 -1.403,0.267 l -0.628,-2.51 -1.939,0.486 0.828,3.311 c -0.334,0.428 -0.582,0.919 -0.72,1.46 -0.047,-0.003 -0.091,-0.014 -0.138,-0.014 h -1 c -2.757,0 -5,2.243 -5,5 0,0.823 0.501,1.531 1.213,1.838 -0.331,0.394 -0.619,0.825 -0.82,1.307 l -5.461,-1.881 -0.978,-9.77 -6.3129994,-5.262 -1.282,1.536 5.6870001,4.738 1.0219993,10.23 6.933,2.388 c 0.004,0.724 0.164,1.452 0.467,2.111 l 0.505,1.094 c -0.218,2.2 -2.56,4.841 -5.418,7.67 H 8.6809817 l -5.0000001,-6 h -7.468 v 2 h 6.531 l 5,6 h 2.9689994 c -4.9219994,4.75 -10.49999939,10.133 -10.49999939,16.001 0,8.265 3.80699999,10 6.99999999,10 1.3280001,0 3.3199994,-0.754 5.4509994,-2.073 l 0.489,1.957 -1.835,3.669 1.789,0.895 2.165,-4.331 -0.847,-3.39 c 1.704,-1.269 3.406,-2.857 4.853,-4.68 0.654,1.729 2.504695,4.733326 3.21115,6.06598 0.904834,1.706875 2.507773,5.248563 4.722773,5.248563 2.203,0 3.684643,-3.677242 4.995643,-5.316242 0.760522,-1.244679 2.283434,-4.271301 2.937434,-6.001301 1.447,1.824 3.15,3.413 4.856,4.683 l -0.847,3.39 2.165,4.331 1.789,-0.895 -1.835,-3.669 0.489,-1.957 c 2.131,1.319 4.123,2.073 5.451,2.073 3.193,0 7,-1.735 7,-10 0,-5.868 -5.578,-11.251 -10.5,-16 h 2.969 z m -32.184,-5.601 c -0.186,-0.405 -0.285,-0.855 -0.285,-1.299 0,-1.709 1.391,-3.1 3.1,-3.1 v -0.01 c 1.272,-0.043 2.336,-0.878 2.729,-2.03 v 0.04 h 4.344 v -0.04 c 0.392,1.151 1.456,1.987 2.729,2.03 v 0.01 c 1.709,0 3.1,1.391 3.1,3.1 0,0.445 -0.099,0.894 -0.285,1.299 l -4.366,9.459 c -0.602,1.301 -1.917,2.142 -3.351,2.142 -1.434,0 -2.749,-0.841 -3.349,-2.143 z m 12.715,-9.399 c 1.654,0 3,1.346 3.001,3 h -3.001 c -0.552,0 -1,-0.449 -1,-1 v -1 -1 z m -3,-1 v 1 1 h -4 v -1 -1 c 0,-1.103 0.897,-2 2,-2 1.103,0 2,0.897 2,2 z m -7,1 h 1 v 1 1 c 0,0.551 -0.448,1 -1,1 h -3 c 0,-1.654 1.346,-3 3,-3 z m -14.9999994,45 c -2.146,0 -5,-0.829 -5,-8 0,-5.02 5.255,-10.09 9.8919994,-14.563 2.997,-2.892 5.713,-5.513 7.112,-8.045 -0.44,3.046 -3.397,6.359 -6.27,9.572 -3.4529993,3.864 -7.0239994,7.859 -7.0239994,12.082 0,3.385 1.864,6.056 1.9430001,6.168 l 1.634,-1.154 c -0.016,-0.022 -1.577,-2.282 -1.577,-5.014 0,-3.458 3.3129993,-7.165 6.5159993,-10.749 0.39,-0.436 0.781,-0.875 1.169,-1.315 -0.147,0.232 -0.294,0.464 -0.441,0.694 -2.005,3.134 -3.898,6.094 -3.953,9.307 -0.028,1.669 0.513,3.553 1.564,5.447 l 1.748,-0.971 c -0.881,-1.587 -1.335,-3.124 -1.313,-4.442 0.045,-2.646 1.79,-5.375 3.638,-8.263 1.366,-2.136 2.756,-4.32 3.59,-6.64 0.064,0.503 0.135,0.966 0.209,1.433 0.263,1.677 0.563,3.577 0.563,8.453 0,8.62 -10.672,16 -13.9999994,16 z m 23.9739994,-2.829 c -0.916,1.145 -2.4,1.829 -3.98,1.829 -1.568,0 -3.052,-0.684 -3.968,-1.828 -1.034,-1.293 -1.88,-3.035 -2.531,-5.156 1.511,-2.424 2.505,-5.149 2.505,-8.016 0,-4.543 -0.255,-6.598 -0.507,-8.242 1.063,1.385 2.719,2.242 4.507,2.242 1.788,0 3.444,-0.857 4.507,-2.242 -0.252,1.644 -0.507,3.699 -0.507,8.242 0,2.866 0.993,5.59 2.502,8.013 -0.651,2.122 -1.495,3.867 -2.528,5.158 z m 21.026,-5.171 c 0,7.171 -2.854,8 -5,8 -3.328,0 -14,-7.38 -14,-16 0,-4.876 0.3,-6.776 0.563,-8.453 0.074,-0.468 0.145,-0.93 0.209,-1.433 0.833,2.32 2.223,4.504 3.59,6.64 1.848,2.889 3.593,5.617 3.638,8.263 0.022,1.318 -0.432,2.854 -1.313,4.442 l 1.748,0.971 c 1.052,-1.894 1.593,-3.777 1.564,-5.447 -0.055,-3.212 -1.948,-6.173 -3.953,-9.307 -0.147,-0.23 -0.294,-0.462 -0.441,-0.694 0.388,0.44 0.779,0.878 1.169,1.315 3.203,3.584 6.516,7.29 6.516,10.749 0,2.732 -1.562,4.992 -1.576,5.012 l 1.633,1.156 c 0.079,-0.112 1.943,-2.783 1.943,-6.168 0,-4.222 -3.571,-8.218 -7.024,-12.082 -2.872,-3.213 -5.83,-6.526 -6.27,-9.572 1.4,2.532 4.115,5.153 7.112,8.045 4.637,4.473 9.892,9.543 9.892,14.563 z"
           id="path860"
           style="fill:#212121;fill-opacity:1;stroke:#212121;stroke-width:0.651059;stroke-miterlimit:4;stroke-dasharray:none;stroke-opacity:1"
           sodipodi:nodetypes="cccccccccccccccccssscccccscccccssscccccccccccccccccccsscccccccssccccccccssccccsccccccccsccsccscssccssccccssssccsscssscccsccsccccccccccsscsccscscsccsssccccccccccsccscccs" />
        <path
           id="path922"
           style="fill:#f0bc5e;fill-opacity:1;stroke:none;stroke-width:0.770415;stroke-linecap:round;stroke-miterlimit:4;stroke-dasharray:none;stroke-opacity:1;paint-order:fill markers stroke"
           inkscape:transform-center-y="0.26639037"
           d="m 22.267177,-54.602549 4.895186,-0.0054 5.407226,-0.006 c 1.750692,-0.0019 -0.02141,3.888302 -1.846637,7.648453 -1.500587,3.091357 -2.347518,5.321196 -3.45344,5.341088 -1.062077,0.0191 -2.217434,-2.393163 -3.637567,-5.387559 -1.940247,-3.804733 -3.939751,-7.608726 -1.364768,-7.59053 z"
           sodipodi:nodetypes="scsssccs" />
      </g>
    </g>
  </g>
  <text
     xml:space="preserve"
     style="font-size:5px;line-height:1.25;font-family:'Source Code Pro';-inkscape-font-specification:'Source Code Pro';word-spacing:-2.08375px;fill:#212121;fill-opacity:1;stroke-width:0.125"
     x="-0.17"
     y="5.7649827"
     id="text873"><tspan
       sodipodi:role="line"
       id="tspan871"
       x="-0.17"
       y="5.7649827"
       style="fill:#212121;fill-opacity:1;stroke-width:0.125">On The Fly          .js</tspan></text>
</svg>
